<svg xmlns="http://www.w3.org/2000/svg" xmlns:xlink="http://www.w3.org/1999/xlink" viewBox="0 0 431.95 133.3"><defs><linearGradient id="a" x1="5112.44" y1="-6732.31" x2="5112.44" y2="-10358.85" gradientTransform="matrix(0.03, 0, 0, -0.03, -86.96, -187.12)" gradientUnits="userSpaceOnUse"><stop offset="0" stop-color="#4680c2"/><stop offset="1" stop-color="#2260a1"/></linearGradient></defs><title>NukeViet CMS</title><path d="M107.16,94V86.62h8.66v2.16h-6.24V91.9h6.24v7.34h-8.66V97.08h6.39V94Z" fill="#1a4683"/><path d="M120,99.24h-2.43V86.62H120V91.9h4V86.62h2.28V99.24H124V94h-4Z" fill="#1a4683"/><path d="M134.4,94h-4v5.28H128V86.62h8.66V99.24H134.4Zm-4-5.18V91.9h4V88.78Z" fill="#1a4683"/><path d="M138.43,99.24V86.62h8.67V94h-3l3,5.28h-2.28L141.71,94h-.85v5.28Zm2.43-10.46V91.9h4V88.78Z" fill="#1a4683"/><path d="M151.28,99.24h-2.43V86.62h2.43Z" fill="#1a4683"/><path d="M155.46,99.24H153V86.62h2.42l4,7.07V86.62h2.27V99.24h-2.27l-4-7.29Z" fill="#1a4683"/><path d="M167.34,91.9h4.79v7.34h-8.67V86.62h8.67v2.16h-6.24v8.3h4V94h-2.51Z" fill="#1a4683"/><path d="M178.35,94V86.62H187v2.16h-6.24V91.9H187v7.34h-8.67V97.08h6.39V94Z" fill="#1a4683"/><path d="M195.16,86.62h2.28V99.24h-8.67V86.62h2.43V97.08h4Z" fill="#1a4683"/><path d="M201.62,97.08h6.24v2.16H199.2V86.62h8.66v2.16h-6.24Z" fill="#1a4683"/><path d="M212.05,97.08h6.24v2.16h-8.67V86.62h8.67v2.16h-6.24Z" fill="#1a4683"/><path d="M222.47,88.78V91.9h6.24V94h-6.24v3.12h6.24v2.16h-8.66V86.62h8.66v2.16Z" fill="#1a4683"/><path d="M230.47,94V86.62h8.66v2.16h-6.24V91.9h6.24v7.34h-8.66V97.08h6.39V94Z" fill="#1a4683"/><path d="M240.89,94V86.62h8.67v2.16h-6.24V91.9h6.24v7.34h-8.67V97.08h6.39V94Z" fill="#1a4683"/><path d="M252.4,99.24h-1.08V97h2.42v2.27l-1,2.11h-1.37Z" fill="#1a4683"/><path d="M262.39,97.08h6.24v2.16H260V86.62h8.67v2.16h-6.24Z" fill="#1a4683"/><path d="M279.05,86.62V99.24h-8.66V86.62Zm-2.27,2.16h-4v8.3h4Z" fill="#1a4683"/><path d="M283.24,99.24h-2.43V86.62h2.43l4,7.07V86.62h2.28V99.24H287.2l-4-7.29Z" fill="#1a4683"/><path d="M293.66,99.24h-2.42V86.62h2.42l4,7.07V86.62h2.27V99.24h-2.27l-4-7.29Z" fill="#1a4683"/><path d="M304.09,88.78V91.9h6.24V94h-6.24v3.12h6.24v2.16h-8.67V86.62h8.67v2.16Z" fill="#1a4683"/><path d="M314.51,97.08h6.24v2.16h-8.67V86.62h8.67v2.16h-6.24Z" fill="#1a4683"/><path d="M325.79,88.78h-3.28V86.62h8.66v2.16h-3V99.24h-2.42Z" fill="#1a4683"/><path d="M339.82,99.24H337.4V86.62h8.66V94h-6.24Zm0-10.46V91.9h4V88.78Z" fill="#1a4683"/><path d="M354.21,94h-4v5.28h-2.43V86.62h8.67V99.24h-2.28Zm-4-5.18V91.9h4V88.78Z" fill="#1a4683"/><path d="M358.24,94V86.62h8.67v2.16h-6.24V91.9h6.24v7.34h-8.67V97.08h6.39V94Z" fill="#1a4683"/><path d="M368.67,94V86.62h8.66v2.16h-6.24V91.9h6.24v7.34h-8.66V97.08h6.39V94Z" fill="#1a4683"/><path d="M381.52,99.24h-2.43V86.62h2.43Z" fill="#1a4683"/><path d="M391.94,86.62V99.24h-8.66V86.62Zm-2.27,2.16h-4v8.3h4Z" fill="#1a4683"/><path d="M396.13,99.24H393.7V86.62h2.43l4,7.07V86.62h2.28V99.24h-2.28l-4-7.29Z" fill="#1a4683"/><path d="M404.12,94V86.62h8.67v2.16h-6.24V91.9h6.24v7.34h-8.67V97.08h6.39V94Z" fill="#1a4683"/><polygon points="18.61 0 431.94 0 431.94 107.24 18.61 107.24 18.61 0" fill="none"/><path d="M79.05,66.39c-3.47-.81-14.88-8.12-18.22-10.6a84.79,84.79,0,0,1-10.17-9.11l-2.17-2.54a58.52,58.52,0,0,1-8.31-13.46c-.24-.49-.37-1.17-.86-1.55L35.85,34.9A122.7,122.7,0,0,0,26.61,54c-4,10.48-6.08,24.18.62,34.16a28.64,28.64,0,0,0,6.94,7.25c12.09,9,30.31,10.66,43.64,3.59-.68-1.11-8.62-8.92-9.48-9.79-2-2-4.59-4.09-6.26-5.77l-4-3.4c-2.73-2.48-7.87-6.45-10.66-8.56L36.22,63.29c9.17,2.11,14.13,4.4,21.94,7.75a97.32,97.32,0,0,1,21.51,13.2c2,1.55,7.75,7.19,7.81,7.19,2.54-3.78,3.78-6,4.65-11.09,2-11.91-3.53-27.59-8.8-38.13L77.87,31.86A234.28,234.28,0,0,0,60.39,5.64a13,13,0,0,0-1.8-2.23,28.91,28.91,0,0,0-3,3.53L48.55,16c-.18.56,2.11,6.32,2.42,7.13a143.12,143.12,0,0,0,8.24,17.61A114.94,114.94,0,0,0,71.05,58a8.06,8.06,0,0,0,.69.81c1.48,1.55,2.1,2.47,4,4.33Z" fill="url(#a)"/><polygon points="326.87 29.71 317.89 29.71 317.89 77.38 309.52 77.38 309.52 29.71 300.53 29.71 300.53 25.31 326.87 25.31 326.87 29.71" fill="#f26822"/><polygon points="296.69 77.38 273.75 77.38 273.75 25.31 296.63 25.31 296.63 29.71 282.24 29.71 282.24 49.24 294.21 49.24 294.21 53.64 282.24 53.64 282.24 73.04 296.69 73.04 296.69 77.38" fill="#f26822"/><polygon points="269.78 77.38 261.29 77.38 261.29 25.31 269.78 25.31 269.78 77.38" fill="#f26822"/><polygon points="257.2 25.31 244.93 77.38 236.56 77.38 224.66 25.31 233.21 25.31 240.78 59.53 248.59 25.31 257.2 25.31" fill="#f26822"/><polygon points="220.63 77.38 197.76 77.38 197.76 25.31 220.63 25.31 220.63 29.71 206.25 29.71 206.25 49.24 218.21 49.24 218.21 53.64 206.25 53.64 206.25 73.04 220.63 73.04 220.63 77.38" fill="#f26822"/><polygon points="193.73 77.38 184.92 77.38 175.38 58.29 175.38 77.38 166.82 77.38 166.82 25.31 175.38 25.31 175.38 44.34 184.92 25.31 193.73 25.31 180.46 51.34 193.73 77.38" fill="#f26822"/><path d="M163.11,69.81c0,2.18-1.18,4.1-3.48,5.71A17.6,17.6,0,0,1,149.9,78a16.7,16.7,0,0,1-9.54-2.48c-2.42-1.68-3.66-3.6-3.66-5.71V25.56h8.37V69.81a3.33,3.33,0,0,0,1.05,2.42,5.06,5.06,0,0,0,3.78,1.37c3.23,0,4.84-1.3,4.84-3.79V25.56h8.37Z" fill="#f26822"/><polygon points="132.86 77.38 124.67 77.38 114.82 49.67 114.82 77.38 106.33 77.38 106.33 25.31 114.51 25.31 124.3 53.08 124.3 25.31 132.86 25.31 132.86 77.38" fill="#f26822"/><path d="M425.44,69.19q0,3.16-3.54,5.58a17,17,0,0,1-9.73,2.61c-4,0-7.19-.81-9.61-2.48s-3.66-3.6-3.66-5.71v-6h8.5v6c0,2.55,1.61,3.79,4.77,3.79a5.27,5.27,0,0,0,3.72-1.3,3.6,3.6,0,0,0,1.05-2.49V63.43q0-4.09-4.64-8.18c-2.92-2.42-5.83-4.77-8.68-7.07-3.16-3-4.72-6.2-4.72-9.54V32.87q0-3.16,3.54-5.58a16.38,16.38,0,0,1,9.73-2.66,17,17,0,0,1,9.73,2.6c2.36,1.67,3.54,3.6,3.54,5.64V39h-8.5V32.87c0-2.54-1.61-3.78-4.77-3.78a4.58,4.58,0,0,0-3.53,1.24,3.76,3.76,0,0,0-1.24,2.54v5.77q0,4.17,4.65,8.18c1.49,1.24,2.91,2.42,4.34,3.59s2.85,2.36,4.34,3.54c3.15,3,4.71,6.13,4.71,9.48Z" fill="#2260a1"/><polygon points="394.88 77.38 386.51 77.38 386.51 49.79 379.87 68.95 373.24 49.79 373.24 77.38 364.75 77.38 364.75 25.31 372.93 25.31 379.81 45.52 386.63 25.31 394.88 25.31 394.88 77.38" fill="#2260a1"/><path d="M360.72,69.19c0,2.18-1.17,4.1-3.41,5.71a18,18,0,0,1-9.79,2.48A16.71,16.71,0,0,1,338,74.9c-2.42-1.68-3.66-3.6-3.66-5.71V32.87c0-2.11,1.24-4,3.66-5.7a16.64,16.64,0,0,1,9.55-2.54,17.29,17.29,0,0,1,9.79,2.6c2.24,1.61,3.41,3.47,3.41,5.64V39h-8.37V32.87c0-2.54-1.61-3.78-4.83-3.78a5.36,5.36,0,0,0-3.78,1.3,3.57,3.57,0,0,0-1.06,2.48V69.19a3.57,3.57,0,0,0,1.06,2.49,5.3,5.3,0,0,0,3.78,1.3c3.22,0,4.83-1.24,4.83-3.79v-6h8.37Z" fill="#2260a1"/><path d="M6.15,106.64c-12.63-10-5-18.16,15.33-15-8.52,3.26-7.29,4.73-3,7.89,60.71,45,241.88,22.67,377.55,5.63C272.13,128,69.65,154.33,6.15,106.64Z" fill="#fec30e" fill-rule="evenodd"/></svg>