<svg xmlns="http://www.w3.org/2000/svg" xmlns:xlink="http://www.w3.org/1999/xlink" viewBox="0 0 69.64 99.99"><defs><linearGradient id="a" x1="3347.11" y1="-15885.6" x2="3347.11" y2="-19512.15" gradientTransform="matrix(0.03, 0, 0, -0.03, -59.9, -449.56)" gradientUnits="userSpaceOnUse"><stop offset="0" stop-color="#4680c2"/><stop offset="1" stop-color="#2260a1"/></linearGradient></defs><title>NukeViet CMS</title><path d="M56.15,63c-3.47-.81-14.88-8.12-18.23-10.6a84.69,84.69,0,0,1-10.16-9.11l-2.17-2.54a58.52,58.52,0,0,1-8.31-13.46c-.25-.49-.37-1.17-.87-1.55l-3.47,5.77A122.66,122.66,0,0,0,3.71,50.58c-4,10.48-6.08,24.18.62,34.16A28.64,28.64,0,0,0,11.27,92c12.09,9.05,30.31,10.66,43.64,3.59-.68-1.11-8.62-8.92-9.49-9.79-2-2-4.58-4.09-6.26-5.77l-4-3.4c-2.73-2.48-7.88-6.45-10.66-8.56L13.32,59.88c9.17,2.11,14.13,4.4,21.94,7.75a97.32,97.32,0,0,1,21.51,13.2c2,1.55,7.75,7.19,7.81,7.19,2.54-3.78,3.78-6,4.65-11.09,2-11.9-3.54-27.59-8.8-38.12L55,28.45A235.2,235.2,0,0,0,37.49,2.23,13,13,0,0,0,35.69,0a28.91,28.91,0,0,0-3,3.53l-7.07,9.05c-.19.56,2.11,6.33,2.42,7.13a143.12,143.12,0,0,0,8.24,17.61A114.2,114.2,0,0,0,48.15,54.61a8.12,8.12,0,0,0,.68.81c1.49,1.55,2.11,2.48,4,4.34Z" fill="url(#a)"/></svg>